<?xml version="1.0" encoding="utf-8"?>
<!-- Generator: Adobe Illustrator 19.0.0, SVG Export Plug-In . SVG Version: 6.00 Build 0)  -->
<svg version="1.1" id="Layer_1" xmlns="http://www.w3.org/2000/svg" xmlns:xlink="http://www.w3.org/1999/xlink" x="0px" y="0px"
	 viewBox="84 148 332 199" style="enable-background:new 84 148 332 199;" xml:space="preserve">
<style type="text/css">
	.st0{fill:none;stroke:#000000;stroke-width:2;stroke-miterlimit:10;}
	.st1{fill:none;stroke:#000000;stroke-width:10;stroke-miterlimit:10;}
</style>
<g id="Layer_1_1_">
</g>
<g id="hand">
	<path id="XMLID_1_" class="st0" d="M79.3,215"/>
	<path id="XMLID_5_" class="st0" d="M91,280c0,0,84.3-4.7,152.7-21.3c0,0,9.7-2.8,12.3-4.5c0,0,5.3-2.5,8.3-1.8
		c0,0,11.3,0.7,17.3,5.7l9.7,1v4.7l2.3,5l84.8-0.2l1.9-2.3c0,0,1.7,0.4,8.3,0c0,0,8.3-1.2,11.7,0c0,0,15,5.2,6,13.9l-5-1.7
		l-20.3,3.3c0,0-16.3,2.7-20.3,4.7c0,0-4.3,1-9,1.7c0,0-10,3.7-15,5.3c0,0-4,0.7-8.7,3.7c0,0-8,5-16,3.7c0,0-22.7-4-26.7-4.3
		c0,0-21.7-3.7-42,1.3c0,0-8-0.3-69.3,21.3s-83,23.3-83,23.3L91,280L91,280z"/>
</g>
<g id="giftbox">
	<path id="XMLID_2_" class="st0" d="M380.3,266.1v-6.4v-72c0,0-0.2-4.2-5.8-4c-5.7,0.2-80.2,0-80.2,0s-3.1-0.3-3,3.2s0,72.2,0,72.2"
		/>
</g>
<g id="ribbon">
	<path id="XMLID_4_" class="st1" d="M333.8,268.4v-85.7c0,0-23.8-44.3-41.2-21c0,0-6,9.3,7.7,17c0,0,23.4,3.6,29.4,3.6h9
		c0,0,16-1,23.5-2.5c0,0,22.5-5.5,14.3-17.8c0,0-9.8-26.2-42.5,19"/>
</g>
</svg>
